<svg width="1000" height="1000" viewBox="0 0 1000 1000" fill="none" xmlns="http://www.w3.org/2000/svg">
<path fill-rule="evenodd" clip-rule="evenodd" d="M284.365 128.701L779.675 135.819L776.977 174.972C757.896 182.682 747.297 195.61 747.266 211.791C747.245 227.972 757.792 240.298 776.977 248.853V804.089H558.255V926.643L284.572 796.24C247.743 778.689 221.321 755.234 214.001 728.117V212.668C214.001 169.214 245.611 128.146 284.365 128.701V128.701ZM724.958 750.41V300.592H327.596L554.821 383.324V750.41H724.958V750.41ZM307.16 167.854L701.374 174.972C682.303 182.682 672.711 196.627 672.69 212.803C672.669 228.978 682.205 240.293 701.374 248.848H307.16C285.636 248.848 268.007 231.23 268.007 209.7V206.997C268.007 185.467 285.62 167.471 307.16 167.854Z" fill="#9C27B0"/>
<path d="M304.418 668C302.306 668 300.578 667.328 299.234 665.984C297.89 664.64 297.218 662.912 297.218 660.8V473.6C297.218 471.488 297.89 469.76 299.234 468.416C300.578 467.072 302.306 466.4 304.418 466.4H376.706C395.906 466.4 411.938 469.472 424.802 475.616C437.666 481.568 447.458 490.4 454.178 502.112C461.09 513.632 464.738 527.936 465.122 545.024C465.314 553.472 465.41 560.864 465.41 567.2C465.41 573.536 465.314 580.832 465.122 589.088C464.546 606.944 460.994 621.728 454.466 633.44C447.938 645.152 438.338 653.888 425.666 659.648C412.994 665.216 397.154 668 378.146 668H304.418ZM343.01 630.848H376.706C386.306 630.848 394.178 629.408 400.322 626.528C406.466 623.648 410.978 619.136 413.858 612.992C416.93 606.656 418.562 598.496 418.754 588.512C418.946 582.944 419.042 577.952 419.042 573.536C419.234 569.12 419.234 564.704 419.042 560.288C419.042 555.872 418.946 550.976 418.754 545.6C418.37 531.2 414.626 520.64 407.522 513.92C400.61 507.008 389.858 503.552 375.266 503.552H343.01V630.848Z" fill="white"/>
</svg>
